@startuml
package "AbstractFactoryExample" {
    skinparam class {
	BackgroundColor White
	ArrowColor Black
	BorderColor Black
    }

    class Client {

    }

    interface AbstractProductA {

    }

    interface AbstractProductB {

    }

    interface AbstractFactory {
        +createProductA() : AbstractProductA
        +createProductB() : AbstractProductB
    }

    class ProductA1 {

    }

    class ProductA2 {
        
    }

    class ProductB1 {
        
    }

    class ProductB2 {
        
    }

    class ConcreteFactory1 {
        +createProductA() : ProductA1
        +createProductB() : ProductB1
    }

    class ConcreteFactory2 {
        +createProductA() : ProductA2
        +createProductB() : ProductB2
    }

    AbstractFactory <|-- ConcreteFactory1
    AbstractFactory <|-- ConcreteFactory2
    AbstractProductA <|-- ProductA1
    AbstractProductA <|-- ProductA2
    AbstractProductB <|-- ProductB1
    AbstractProductB <|-- ProductB2

    ConcreteFactory1 ..> ProductB1
    ConcreteFactory1 ..> ProductA1
    ConcreteFactory2 ..> ProductB2
    ConcreteFactory2 ..> ProductA2

    Client --> AbstractFactory
    Client --> AbstractProductA
    Client --> AbstractProductB
} 
@enduml